<svg xmlns="http://www.w3.org/2000/svg" viewBox="0 0 512 512">
  <rect width="512" height="512" rx="64" fill="#0abf53"/>
  <path d="M396.8 153.6H267.2c-7.1 0-12.8 5.7-12.8 12.8v179.2c0 7.1 5.7 12.8 12.8 12.8H396.8c7.1 0 12.8-5.7 12.8-12.8V166.4c0-7.1-5.7-12.8-12.8-12.8zm-32 153.6h-64V192h64v115.2z" fill="#fff"/>
  <path d="M192 153.6h-76.8c-7.1 0-12.8 5.7-12.8 12.8v179.2c0 7.1 5.7 12.8 12.8 12.8H192c42.4 0 76.8-34.4 76.8-76.8v-51.2c0-42.4-34.4-76.8-76.8-76.8zm25.6 128c0 14.1-11.5 25.6-25.6 25.6h-25.6V204.8H192c14.1 0 25.6 11.5 25.6 25.6v51.2z" fill="#fff"/>
</svg>
